# xmcd
#
# Track frame offsets:
#  150
#  15030
#  27964
#  38472
#  49157
#  60105
#  72823
#  84749
#  95624
#  109722
#  119138
#  130948
#  142687
#  154310
#  166054
#  176474
#
# Disc length: 2480 seconds
#
# Revision: 0
# Processed by: cddbd v1.5.2PL0 Copyright (c) Steve Scherf et al.
# Submitted via: AltoMP3_Maker 3.0
#
DISCID=bf09ae10
DTITLE=Various Artist - Country Classics Vol20
DYEAR=1900
DGENRE=
TTITLE0=I Dreamed Of A Hillbilly Heaven
TTITLE1=Let The Dukebox Keep On Playing
TTITLE2=Dream Baby
TTITLE3=Beautiful Brown Eyes
TTITLE4=She Took
TTITLE5=What I've Got In Mind
TTITLE6=Detour
TTITLE7=Dear John (I Brought Your Saddle Home)
TTITLE8=I'm Thinking Tonight Of My Blue Eyes
TTITLE9=Boat Of Life
TTITLE10=Mexican Joe
TTITLE11=You Win Again
TTITLE12=Hello My Baby
TTITLE13=Tennessee Choo Choo
TTITLE14=Unwanted Sign Upon Your Heart
TTITLE15=Amazing Grace
EXTD=
EXTT0=
EXTT1=
EXTT2=
EXTT3=
EXTT4=
EXTT5=
EXTT6=
EXTT7=
EXTT8=
EXTT9=
EXTT10=
EXTT11=
EXTT12=
EXTT13=
EXTT14=
EXTT15=
PLAYORDER=
